<svg width="135" height="43" viewBox="0 0 135 43" fill="none" xmlns="http://www.w3.org/2000/svg">
<path d="M132.279 27.9255C131.579 27.9255 130.88 27.7212 130.503 27.4541L130.88 26.7077C131.249 26.9513 131.815 27.1241 132.341 27.1241C132.962 27.1241 133.221 26.9513 133.221 26.6606C133.221 25.8592 130.629 26.6134 130.629 24.94C130.629 24.1465 131.344 23.6279 132.475 23.6279C133.033 23.6279 133.669 23.7615 134.046 23.9893L133.669 24.7357C133.268 24.5 132.868 24.4214 132.467 24.4214C131.87 24.4214 131.587 24.6179 131.587 24.8928C131.587 25.7414 134.18 24.9871 134.18 26.6292C134.18 27.4148 133.457 27.9255 132.279 27.9255Z" fill="#3D3D3D"/>
<path d="M127.883 27.9255C126.594 27.9255 125.651 27.0299 125.651 25.7728C125.651 24.5157 126.594 23.6279 127.883 23.6279C129.187 23.6279 130.122 24.5157 130.122 25.7728C130.122 27.0299 129.187 27.9255 127.883 27.9255ZM127.883 27.0848C128.598 27.0848 129.132 26.5742 129.132 25.7728C129.132 24.9714 128.598 24.4607 127.883 24.4607C127.176 24.4607 126.641 24.9714 126.641 25.7728C126.641 26.5742 127.176 27.0848 127.883 27.0848Z" fill="#3D3D3D"/>
<path d="M125.488 27.8712H124.381L123.304 26.4177L122.22 27.8712H121.136L122.77 25.7421L121.206 23.6758H122.299L123.328 25.0507L124.357 23.6758H125.418L123.846 25.7264L125.488 27.8712Z" fill="#3D3D3D"/>
<path d="M120.96 25.7964C120.96 25.8749 120.952 25.9928 120.944 26.0871H117.652C117.77 26.6999 118.281 27.0927 119.011 27.0927C119.483 27.0927 119.852 26.9434 120.15 26.637L120.677 27.242C120.3 27.6898 119.71 27.9255 118.988 27.9255C117.581 27.9255 116.67 27.022 116.67 25.7728C116.67 24.5236 117.589 23.6279 118.838 23.6279C120.064 23.6279 120.96 24.4843 120.96 25.7964ZM118.838 24.4136C118.202 24.4136 117.738 24.8221 117.644 25.435H120.025C119.946 24.83 119.483 24.4136 118.838 24.4136Z" fill="#3D3D3D"/>
<path d="M114.824 27.8706V22.041H115.806V27.8706H114.824Z" fill="#3D3D3D"/>
<path d="M111.841 23.6279C113.067 23.6279 113.97 24.4764 113.97 25.7728C113.97 27.077 113.067 27.9255 111.841 27.9255C111.307 27.9255 110.836 27.7448 110.498 27.3598V29.3947H109.516V23.6751H110.451V24.225C110.781 23.8243 111.268 23.6279 111.841 23.6279ZM111.731 27.0848C112.438 27.0848 112.973 26.5742 112.973 25.7728C112.973 24.9714 112.438 24.4607 111.731 24.4607C111.024 24.4607 110.482 24.9714 110.482 25.7728C110.482 26.5742 111.024 27.0848 111.731 27.0848Z" fill="#3D3D3D"/>
<path d="M106.62 23.6279C107.633 23.6279 108.34 24.2015 108.34 25.4664V27.8705H107.358V25.5921C107.358 24.8457 107.012 24.4843 106.415 24.4843C105.771 24.4843 105.323 24.9086 105.323 25.7414V27.8705H104.341V25.5921C104.341 24.8457 103.995 24.4843 103.398 24.4843C102.746 24.4843 102.306 24.9086 102.306 25.7414V27.8705H101.324V23.6751H102.259V24.2093C102.573 23.8322 103.061 23.6279 103.634 23.6279C104.247 23.6279 104.758 23.8558 105.048 24.3272C105.386 23.8951 105.952 23.6279 106.62 23.6279Z" fill="#3D3D3D"/>
<path d="M98.2245 27.9255C96.936 27.9255 95.9932 27.0299 95.9932 25.7728C95.9932 24.5157 96.936 23.6279 98.2245 23.6279C99.5287 23.6279 100.464 24.5157 100.464 25.7728C100.464 27.0299 99.5287 27.9255 98.2245 27.9255ZM98.2245 27.0848C98.9394 27.0848 99.4737 26.5742 99.4737 25.7728C99.4737 24.9714 98.9394 24.4607 98.2245 24.4607C97.5174 24.4607 96.9831 24.9714 96.9831 25.7728C96.9831 26.5742 97.5174 27.0848 98.2245 27.0848Z" fill="#3D3D3D"/>
<path d="M93.5019 27.9497C91.8205 27.9497 90.5635 26.7634 90.5635 25.1214C90.5635 23.4793 91.8205 22.293 93.5097 22.293C94.4054 22.293 95.1753 22.6151 95.686 23.2122L95.026 23.8329C94.6254 23.4008 94.1304 23.1886 93.5569 23.1886C92.4176 23.1886 91.5927 23.99 91.5927 25.1214C91.5927 26.2527 92.4176 27.0541 93.5569 27.0541C94.1304 27.0541 94.6254 26.842 95.026 26.402L95.686 27.0305C95.1753 27.6276 94.4054 27.9497 93.5019 27.9497Z" fill="#3D3D3D"/>
<path d="M30.2325 19.491C33.3733 17.0078 37.4662 17.6749 40.3862 20.1462C44.0233 23.2277 45.8275 28.0043 49.5809 31.2543C56.4798 37.2321 68.0128 36.4606 74.964 30.9504C77.4211 29.0037 80.0397 24.2937 83.5699 27.4867C86.573 30.2026 84.2037 33.2889 81.9555 35.4326C71.4172 45.4819 51.8884 45.762 43.1069 33.3079C41.2266 30.6418 38.195 23.2349 35.5717 22.093C34.7788 21.7463 33.2594 21.5113 32.8321 22.506C32.1626 24.0634 34.5936 24.023 35.2773 24.2984C36.5047 24.7946 38.0573 28.0446 38.5962 29.2791C32.0676 31.3896 25.8595 28.1159 23.901 21.5802C21.1661 12.4568 26.5907 1.5956 37.2858 3.7797C45.018 5.35843 47.6626 13.9619 45.9201 20.8988C45.8441 21.1979 45.4548 22.8004 45.1058 22.7102C43.6363 20.6875 41.9602 18.7764 39.7286 17.5776C39.8473 14.4913 39.0853 9.78125 35.2773 9.37054C30.356 8.83638 29.131 15.949 30.2349 19.4863L30.2325 19.491Z" fill="#F99E0D"/>
<path d="M16.1116 0.0621374C18.5497 -0.187136 21.5125 0.221197 22.1773 3.00356C22.6877 5.1473 21.382 9.20927 21.0543 11.569C20.2092 17.6561 20.6104 25.006 25.6291 29.2864C27.3265 30.7322 29.532 31.3613 28.2215 34.26C26.8992 37.1872 23.6753 36.9332 21.2704 35.5538C18.2577 33.8256 16.463 30.4307 15.549 27.183C15.1762 25.8559 14.8985 22.867 14.0438 21.9982C12.9304 20.8657 9.46669 20.588 8.38176 21.7085C7.59833 22.5157 7.8476 25.6114 7.26596 26.9219C5.97449 29.8324 0.737376 29.3458 0.0892651 26.0411C-0.307198 24.0232 0.711261 20.2414 1.29527 18.2045C3.26334 11.3245 7.94968 0.893047 16.1116 0.0621374ZM14.9032 6.99192C14.7442 6.9943 14.4094 7.09638 14.2599 7.1676C12.9945 7.76823 11.0905 11.1607 10.5018 12.4854C10.1433 13.295 9.17468 15.1182 10.1741 15.7212C10.7083 16.0441 13.6117 15.9919 14.2124 15.7165C15.1525 15.2868 14.946 13.8814 15.0765 12.9982C15.2617 11.7424 15.9525 8.80331 15.7697 7.73499C15.6938 7.28868 15.3662 6.98243 14.9008 6.98955L14.9032 6.99192Z" fill="#F99E0D"/>
<path d="M48.8381 3.04391C54.258 2.30796 55.3952 7.84657 55.1957 12.0272C55.0889 14.2612 54.353 16.5854 54.6117 18.8217C54.9393 21.6397 58.0232 20.9678 58.7212 18.5392C59.7183 15.0779 57.6244 8.46381 60.5682 6.05655C62.6265 4.37336 65.981 5.66958 65.9549 8.44957C65.9359 10.439 65.2213 13.0077 65.1097 15.1372C64.9696 17.8199 65.0052 21.0034 66.0783 23.4819C66.3252 24.0493 66.8831 24.6048 66.9045 25.2909C66.9994 28.1991 61.6341 29.4763 60.3569 26.0957C60.2121 25.7135 60.1361 24.6214 59.6732 24.6262C59.3456 24.6286 58.2915 26.2453 57.9283 26.5871C55.5305 28.8496 51.2501 28.4745 49.4814 25.6233C46.6991 21.1387 50.5498 14.0238 47.3614 8.51842C46.6611 7.30766 45.4456 6.56696 45.9323 4.92176C46.2267 3.92942 47.8885 3.17685 48.8357 3.04628L48.8381 3.04391Z" fill="#F99E0D"/>
<path d="M75.6007 3.88473C80.6076 3.50014 84.5508 5.95963 84.9402 11.1944C85.0826 13.1007 84.3134 17.0843 85.32 18.5776C86.0916 19.7219 88.0976 18.9622 88.3968 21.1154C88.8977 24.7334 84.6173 25.8421 82.1388 23.9097C81.7566 23.6129 80.6266 22.1125 80.4628 22.1149C80.2325 22.1149 79.1547 23.8954 78.8508 24.2112C75.6482 27.5277 69.0555 26.6564 67.802 21.8846C66.6198 17.3882 69.3855 14.2664 73.5709 13.2004C74.6915 12.9155 77.7801 12.7707 78.433 12.0894C79.1475 11.3439 78.5683 10.1996 77.8157 9.72009C76.9064 9.13845 75.6601 9.2619 74.7057 9.67736C73.0676 10.3896 72.6095 12.125 70.4586 11.8187C69.4069 11.6692 68.2555 10.5652 68.1083 9.51118C67.5979 5.82431 72.7044 4.10789 75.5984 3.88473H75.6007ZM78.7297 16.149C76.9112 16.5003 73.6113 16.8778 73.362 19.2067C73.2884 19.9047 73.6517 20.7451 74.3971 20.897C76.7782 21.3861 78.497 18.1336 78.7297 16.149Z" fill="#F99E0D"/>
</svg>
